<svg width="64" height="64" viewBox="0 0 64 64" fill="none" xmlns="http://www.w3.org/2000/svg" role="img" aria-labelledby="title desc">
  <title id="title">HospiControl mark</title>
  <desc id="desc">Rounded medical cross with a small consent heart accent.</desc>
  <path
    d="M32 7.5c6.4 0 10.7 4.3 10.7 10.7v5.1h5.1c6.4 0 10.7 4.3 10.7 10.7s-4.3 10.7-10.7 10.7h-5.1v5.1c0 6.4-4.3 10.7-10.7 10.7s-10.7-4.3-10.7-10.7v-5.1h-5.1C9.8 44.7 5.5 40.4 5.5 34s4.3-10.7 10.7-10.7h5.1v-5.1C21.3 11.8 25.6 7.5 32 7.5Z"
    stroke="#0F766E"
    stroke-width="4.5"
    stroke-linejoin="round"
  />
  <path
    d="M32 40.8c-5.5-3.7-8.2-6.4-8.2-10.1 0-3 2.3-5.1 5.1-5.1 1.5 0 2.9.7 3.9 1.9 1-1.2 2.4-1.9 3.9-1.9 2.8 0 5.1 2.1 5.1 5.1 0 3.7-2.7 6.4-8.2 10.1l-.8.5-.8-.5Z"
    fill="#D79A2B"
  />
  <path
    d="M43.7 38.2h4.1l2.1-5.1 3.2 10.4 2.2-5.3h3.2"
    stroke="#D79A2B"
    stroke-width="2.4"
    stroke-linecap="round"
    stroke-linejoin="round"
  />
</svg>
